<svg width="71" height="70" viewBox="0 0 71 70" fill="none" xmlns="http://www.w3.org/2000/svg">
<circle cx="35.1045" cy="35" r="34.5" stroke="#43638C"/>
<path d="M1.59917 29.0974L1.84695 28.3539L11.0337 36.0259L2.80952 45.0339L1.59651 41.3948L1.1062 36.4918L1.59917 29.0974Z" fill="#43638C" stroke="#43638C"/>
<path d="M22.2105 56.2406L25.3393 67.8421L21.3733 66.7147L17.4757 64.4731L13.5716 62.2277L10.6027 59.3666L22.2105 56.2406Z" fill="#43638C"/>
<path d="M48.4222 55.8027L60.0449 58.852L57.0959 61.7335L53.2139 64.0021L49.3254 66.2745L45.3674 67.4294L48.4222 55.8027Z" fill="#43638C"/>
<path d="M59.1091 35.5014L68.3692 27.1199L69.2383 31.3061L69.6018 35.8192L68.9507 40.8018L67.8405 44.4323L59.1091 35.5014Z" fill="#43638C"/>
<path d="M35.2828 10.1482L26.489 1.27866L31.1045 0.499999L35.1045 0.5L39.1045 0.499999L43.8075 1.01968L35.2828 10.1482Z" fill="#43638C"/>
<path d="M28.1045 33.5L34.6045 29L41.6045 33.5L40.1045 42.5H29.1045L28.1045 33.5Z" fill="#43638C"/>
<path d="M35.6038 9.02612L34.4812 25L34.4812 30.3549" stroke="#43638C"/>
<path d="M29.5569 41.213L26.6045 50.5L21.5569 58.213" stroke="#43638C"/>
<path d="M39.5285 40.735L44.1045 49.5L49.5285 56.735" stroke="#43638C"/>
<path d="M10.0303 36.5055L20.1045 36L30.0303 33.5055" stroke="#43638C"/>
<path d="M41.1543 33.5024L51.1045 35L56.1294 35.2512L61.1543 35.5024" stroke="#43638C"/>
</svg>
